<svg xmlns="http://www.w3.org/2000/svg" viewBox="0 0 160 40" fill="none">
  <!-- Palm tree mark -->
  <g transform="translate(2,2)">
    <!-- trunk -->
    <path d="M18 34 C17 28 16 22 18 14" stroke="#111827" stroke-width="2" stroke-linecap="round"/>
    <!-- fronds -->
    <path d="M18 14 C12 10 6 12 4 8 C8 8 14 10 18 14" fill="#111827" opacity="0.85"/>
    <path d="M18 14 C20 8 18 2 22 0 C22 4 20 10 18 14" fill="#111827" opacity="0.85"/>
    <path d="M18 14 C24 12 30 14 32 10 C28 12 22 12 18 14" fill="#111827" opacity="0.75"/>
    <path d="M18 14 C14 10 12 4 8 4 C10 8 16 10 18 14" fill="#111827" opacity="0.7"/>
    <!-- ground line -->
    <path d="M12 35 Q18 33 24 35" stroke="#111827" stroke-width="1.5" stroke-linecap="round" opacity="0.5"/>
  </g>
  <!-- Brand text -->
  <text x="46" y="16" font-family="'Outfit', 'Arial Black', sans-serif" font-weight="800" font-size="10.5" letter-spacing="1.5" fill="#111827">CITY TOUR</text>
  <text x="46" y="30" font-family="'Outfit', 'Arial Black', sans-serif" font-weight="800" font-size="10.5" letter-spacing="1.5" fill="#111827">GUIDE</text>
</svg>
